<svg width="229" height="70" viewBox="0 0 229 70" fill="none" xmlns="http://www.w3.org/2000/svg">
<rect width="229" height="70" rx="5" fill="black" fill-opacity="0.4"/>
<path d="M37.384 31.376L17.032 29.216H37.72C37.56 29.856 37.448 30.576 37.384 31.376ZM39.016 24.608L38.296 26.72L18.376 24.608H39.016ZM37.384 33.824C37.448 34.688 37.576 35.408 37.768 35.984L17.464 33.824H37.384ZM44.104 40.592L18.712 38.432H39.4C40.456 39.456 42.024 40.176 44.104 40.592ZM42.616 20C41.88 20.48 41.176 21.136 40.504 21.968L21.976 20H42.616ZM17.896 43.04H35.848L35.128 45.152L17.896 43.04ZM17.08 47.696H34.312L33.592 49.808L17.08 47.696ZM37.912 41.552C40.6 42.288 43.048 42.656 45.256 42.656C47.496 42.656 49.32 42.56 50.728 42.368L51.112 39.968L47.128 39.584C44.088 39.296 41.928 38.608 40.648 37.52C39.4 36.432 38.776 34.896 38.776 32.912C38.776 32.048 38.872 31.088 39.064 30.032C39.8 25.936 41.144 23.12 43.096 21.584C45.048 20.048 48.04 19.28 52.072 19.28C56.136 19.28 59.72 19.68 62.824 20.48L60.328 28.16C57.544 27.68 55.304 27.44 53.608 27.44C51.944 27.44 50.504 27.52 49.288 27.68L48.904 30.032L52.12 30.368C55.384 30.72 57.704 31.504 59.08 32.72C60.456 33.904 61.144 35.504 61.144 37.52C61.144 39.568 60.712 41.68 59.848 43.856C59.368 44.976 58.856 45.92 58.312 46.688C57.8 47.424 57.128 48.064 56.296 48.608C55.496 49.12 54.76 49.52 54.088 49.808C53.416 50.064 52.552 50.256 51.496 50.384C50.024 50.608 48.2 50.72 46.024 50.72C42.056 50.72 38.456 50.304 35.224 49.472L37.912 41.552ZM93.2969 38.672H84.1769L83.5529 42.32H94.7369L93.3929 50H73.0889L78.3689 20H98.4329L95.9369 27.68H86.0969L85.4249 31.712H94.5449L93.2969 38.672ZM71.6489 49.856L51.2969 47.696H72.0329L71.6489 49.856ZM73.2809 40.592L52.9289 38.432H73.6649L73.2809 40.592ZM74.0969 35.984L53.7449 33.824H74.4809L74.0969 35.984ZM74.9129 31.376L54.5609 29.216H75.2969L74.9129 31.376ZM75.7289 26.768L55.3769 24.608H76.0649L75.7289 26.768ZM72.4649 45.2L52.1129 43.04H72.8489L72.4649 45.2ZM76.4969 22.16L56.1929 20H76.8809L76.4969 22.16ZM119.773 39.344C119.645 39.12 119.581 38.816 119.581 38.432C119.581 38.016 119.613 37.552 119.677 37.04H119.293L117.037 50H107.917L113.197 20H121.789L126.685 30.656C126.781 30.88 126.829 31.2 126.829 31.616C126.829 32 126.797 32.448 126.733 32.96H127.117L129.421 20H138.541L133.261 50H124.669L119.773 39.344ZM106.477 49.856L86.125 47.696H106.861L106.477 49.856ZM108.109 40.592L87.757 38.432H108.493L108.109 40.592ZM108.925 35.984L88.573 33.824H109.309L108.925 35.984ZM109.741 31.376L89.389 29.216H110.125L109.741 31.376ZM110.557 26.768L90.205 24.608H110.893L110.557 26.768ZM107.293 45.2L86.941 43.04H107.677L107.293 45.2ZM111.325 22.16L91.021 20H111.709L111.325 22.16ZM157.769 50H148.169L160.793 20H174.905L177.017 50H167.369L167.177 45.248H159.641L157.769 50ZM166.457 37.616V29.216H165.977L162.617 37.616H166.457ZM146.633 49.808L126.953 47.696H147.545L146.633 49.808ZM148.601 45.152L128.921 43.04H149.513L148.601 45.152ZM150.569 40.544L130.889 38.432H151.433L150.569 40.544ZM152.489 35.936L132.857 33.824H153.401L152.489 35.936ZM154.457 31.328L134.825 29.216H155.321L154.457 31.328ZM158.345 22.064L138.761 20H159.209L158.345 22.064ZM156.377 26.672L136.793 24.608H157.241L156.377 26.672ZM158.345 22.064L159.209 20H138.761L158.345 22.064ZM189.573 50L194.853 20H203.973L198.693 50H189.573ZM188.133 49.856L167.781 47.696H188.517L188.133 49.856ZM189.765 40.592L169.413 38.432H190.149L189.765 40.592ZM190.581 35.984L170.229 33.824H190.965L190.581 35.984ZM191.397 31.376L171.045 29.216H191.781L191.397 31.376ZM192.213 26.768L171.861 24.608H192.549L192.213 26.768ZM188.949 45.2L168.597 43.04H189.333L188.949 45.2ZM192.981 22.16L172.677 20H193.365L192.981 22.16Z" fill="white"/>
</svg>
