<svg width="39" height="39" viewBox="0 0 39 39" fill="none" xmlns="http://www.w3.org/2000/svg">
<path d="M10.1492 2.91926C0.965546 8.00118 -2.33851 19.5942 2.76716 28.8207C7.87283 38.0473 19.4503 41.4054 28.634 36.3234C37.8176 31.2415 41.1217 19.6485 36.016 10.422C30.9103 1.19539 19.3328 -2.16267 10.1492 2.91926ZM26.8451 33.0908C19.4513 37.1823 10.0954 34.4686 5.98479 27.0402C1.87417 19.6118 4.5442 10.2434 11.938 6.15192C19.3319 2.06041 28.6877 4.77409 32.7984 12.2025C36.909 19.6309 34.2389 28.9993 26.8451 33.0908ZM21.4786 23.3928C19.2262 24.6392 17.6595 26.8081 17.1731 29.3469C16.9834 30.3491 17.64 31.3141 18.6405 31.5082C19.6411 31.7023 20.6048 31.0546 20.7945 30.0524C21.3501 27.1322 24.7152 25.2701 27.4845 26.3504C28.3889 26.7032 29.4831 26.2912 29.862 25.2986C30.229 24.3478 29.7534 23.2826 28.8102 22.9073C26.4007 21.971 23.7309 22.1464 21.4786 23.3928ZM15.5777 20.3243C16.2681 19.9423 16.6619 19.1349 16.4822 18.3195C16.2636 17.3232 15.2816 16.6879 14.2886 16.9031L8.03148 18.2543C7.0281 18.4664 6.4086 19.4514 6.62717 20.4477C6.84574 21.4439 7.82778 22.0793 8.82072 21.8641L11.0279 21.3905C11.0027 21.8355 11.0602 22.2875 11.2912 22.7051C11.9509 23.8971 13.4424 24.3298 14.6289 23.6732C15.8154 23.0166 16.2373 21.5164 15.5777 20.3243V20.3243ZM26.8714 9.24519C26.1434 8.53084 24.9835 8.5393 24.2671 9.27002L19.7988 13.8539C19.0891 14.5809 19.1058 15.7504 19.8339 16.4648C20.4293 17.0502 21.3225 17.1453 22.0129 16.7633C22.6726 17.9553 24.1641 18.3879 25.3506 17.7314C26.5371 17.0748 26.9627 15.5813 26.3031 14.3892C26.072 13.9717 25.7196 13.6829 25.3292 13.4679L26.9027 11.8494C27.6162 11.1291 27.5994 9.95954 26.8714 9.24519Z" fill="#903150"/>
</svg>
