<svg width="69" height="60" viewBox="0 0 69 60" fill="none" xmlns="http://www.w3.org/2000/svg">
<path fill-rule="evenodd" clip-rule="evenodd" d="M56.4161 0.561474L33.594 6.73731L32.2909 7.73857L30.2305 11.0637L26.8966 9.19831L25.295 8.98306L2.47284 15.1589L0.895593 17.7479L10.8454 58.2982L13.4177 59.7643L35.3685 53.8243L39.7828 56.3054L42.6874 55.5194L45.4102 51.1069L67.361 45.1669L68.9382 42.5779L58.9884 2.02755L56.4161 0.561474ZM37.638 50.2696L36.7219 49.7824L35.2449 49.5334L14.4974 55.1478L5.54257 18.6525L25.4186 13.2739L29.2255 15.4437L37.638 50.2696ZM64.2913 41.6733L43.5438 47.2877L42.2408 48.2889L41.7892 48.9733L33.2522 14.1811L35.4604 10.5565L55.3364 5.17795L64.2913 41.6733ZM24.1305 22.2711L11.682 25.6397L12.677 29.6947L25.1255 26.3261L24.1305 22.2711ZM28.1104 38.4912L15.662 41.8598L16.657 45.9149L29.1054 42.5462L28.1104 38.4912ZM13.672 33.7498L26.1205 30.3811L27.1154 34.4362L14.667 37.8048L13.672 33.7498ZM53.1769 14.4109L40.7284 17.7795L41.7234 21.8346L54.1719 18.4659L53.1769 14.4109ZM42.7184 25.8896L55.1668 22.521L56.1618 26.576L43.7134 29.9447L42.7184 25.8896ZM44.7084 33.9997L57.1568 30.6311L58.1518 34.6861L45.7033 38.0547L44.7084 33.9997Z" fill="#903150"/>
</svg>
