<svg width="72" height="42" viewBox="0 0 72 42" fill="none" xmlns="http://www.w3.org/2000/svg">
<path d="M28.0899 25.9048C29.5213 26.9019 30.5185 28.3973 30.8623 30.0617C31.206 31.7262 30.8682 33.4235 29.923 34.7802L27.5439 38.1951L27.3536 38.4273C23.241 42.7451 17.0408 41.877 9.35317 36.5212C1.69432 31.1854 -1.36165 25.6456 0.962767 20.1663L1.16202 19.8087L3.53794 16.3984C4.48314 15.0417 5.95823 14.1366 7.6387 13.8824C9.31918 13.6282 11.0674 14.0456 12.4987 15.0428L28.0899 25.9048ZM25.714 29.3151L10.1228 18.4531C9.64571 18.1207 9.06298 17.9816 8.50282 18.0663C7.94266 18.1511 7.45096 18.4528 7.1359 18.905L4.8867 22.1335C3.65758 25.3297 5.69171 28.9047 11.7291 33.1108C17.7641 37.3153 21.6755 37.9093 24.0394 35.5544L26.325 32.2736C26.6401 31.8214 26.7527 31.2556 26.6381 30.7008C26.5235 30.1459 26.1911 29.6475 25.714 29.3151ZM32.9659 2.2852C34.0683 3.05327 35.0166 4.01964 35.7566 5.12915C36.4965 6.23865 37.0137 7.46956 37.2785 8.75159C37.5432 10.0336 37.5505 11.3417 37.2998 12.601C37.0491 13.8604 36.5453 15.0465 35.8173 16.0915C35.0893 17.1364 34.1512 18.0199 33.0567 18.6914C31.9622 19.363 30.7327 19.8094 29.4383 20.0052C28.144 20.201 26.8101 20.1424 25.513 19.8327C24.2158 19.523 22.9807 18.9683 21.8783 18.2002C19.6517 16.649 18.1004 14.323 17.5657 11.7338C17.0309 9.14462 17.5565 6.50439 19.0268 4.39393C20.4971 2.28347 22.7917 0.875659 25.4058 0.480194C28.0199 0.0847292 30.7393 0.734007 32.9659 2.2852ZM68.685 13.6616C70.1163 14.6588 71.1136 16.1541 71.4573 17.8185C71.8011 19.483 71.4632 21.1803 70.518 22.537L64.9742 30.4945C64.5062 31.1663 63.9032 31.7343 63.1996 32.166C62.496 32.5976 61.7056 32.8846 60.8735 33.0105C60.0414 33.1364 59.1839 33.0987 58.35 32.8996C57.5161 32.7005 56.7222 32.3439 56.0134 31.8501L52.5234 29.4187L43.9367 30.6669C43.2416 30.7682 42.5211 30.6636 41.8658 30.3663C41.2106 30.069 40.65 29.5924 40.2545 28.9963C39.859 28.4001 39.6462 27.7112 39.643 27.0162C39.6398 26.3212 39.8463 25.6511 40.2366 25.0902L42.2434 22.2096C41.0215 21.1507 40.218 19.7059 39.9863 18.1515C39.7547 16.5971 40.1113 15.0421 40.9878 13.7838L46.5316 5.82628C47.4768 4.46956 48.9519 3.56454 50.6324 3.31031C52.3129 3.05608 54.0611 3.47348 55.4925 4.47067L68.685 13.6616ZM30.59 5.69555C29.3176 4.80916 27.7637 4.43814 26.2699 4.66412C24.7762 4.8901 23.465 5.69457 22.6248 6.90054C21.7846 8.10652 21.4843 9.61522 21.7898 11.0948C22.0954 12.5743 22.9819 13.9034 24.2542 14.7898C25.5265 15.6762 27.0805 16.0472 28.5742 15.8213C30.068 15.5953 31.3792 14.7908 32.2193 13.5848C33.0595 12.3789 33.3599 10.8702 33.0543 9.39064C32.7487 7.91111 31.8623 6.58194 30.59 5.69555ZM66.309 17.0719L53.1165 7.88102C52.6394 7.54863 52.0567 7.4095 51.4965 7.49424C50.9364 7.57898 50.4447 7.88066 50.1296 8.3329L44.5858 16.2904C43.93 17.2317 44.2038 18.5571 45.1968 19.2489L48.1927 21.3361L44.7809 26.2333L53.4242 24.9807L58.3917 28.4415C58.8688 28.7739 59.4516 28.913 60.0117 28.8282C60.5719 28.7435 61.0636 28.4418 61.3787 27.9896L66.9225 20.0321C67.2375 19.5799 67.3502 19.0141 67.2356 18.4593C67.121 17.9044 66.7886 17.406 66.3114 17.0736L66.309 17.0719Z" fill="#903150"/>
</svg>
