<svg width="45" height="41" viewBox="0 0 45 41" fill="none" xmlns="http://www.w3.org/2000/svg">
<g clip-path="url(#clip0_24_67)">
<path d="M14.6246 28.1875C14.4565 28.1875 14.2885 28.2155 14.1282 28.2748C13.2169 28.6119 12.2586 28.8281 11.2496 28.8281C10.2406 28.8281 9.28222 28.6119 8.37027 28.2748C8.20996 28.2155 8.04261 28.1875 7.87457 28.1875C3.51097 28.1875 -0.0236389 32.2298 -0.000435728 37.2059C0.00940802 39.3088 1.52746 41 3.37456 41H19.1246C20.9717 41 22.4897 39.3088 22.4996 37.2059C22.5228 32.2298 18.9882 28.1875 14.6246 28.1875ZM11.2496 25.625C14.9775 25.625 17.9996 22.1832 17.9996 17.9375C17.9996 13.6918 14.9775 10.25 11.2496 10.25C7.5216 10.25 4.49957 13.6918 4.49957 17.9375C4.49957 22.1832 7.5216 25.625 11.2496 25.625ZM41.6246 0H14.6246C12.7634 0 11.2496 1.78174 11.2496 3.97107V7.6875C12.8963 7.6875 14.4207 8.23043 15.7496 9.11289V5.125H40.4996V28.1875H35.9996V23.0625H26.9996V28.1875H21.6389C22.9819 29.524 23.9677 31.2889 24.4296 33.3125H41.6246C43.4857 33.3125 44.9996 31.5308 44.9996 29.3414V3.97107C44.9996 1.78174 43.4857 0 41.6246 0Z" fill="#903150"/>
</g>
<defs>
<clipPath id="clip0_24_67">
<rect width="45" height="41" fill="white"/>
</clipPath>
</defs>
</svg>
