<svg width="55" height="34" viewBox="0 0 55 34" fill="none" xmlns="http://www.w3.org/2000/svg">
<path d="M28.7289 20.5L15.7484 5.55068L5.18031 32.4695L0.859014 30.3854L13.9109 3.4107L11.3344 0.447787L37.1529 1.23624L54.5474 21.2884L28.7289 20.5ZM33.9939 8.46014C32.8056 7.88703 31.6016 7.94786 31.3068 8.62209C31.0119 9.29633 31.7526 10.295 32.9409 10.8681C34.1293 11.4412 35.3332 11.3804 35.6281 10.7062C35.9229 10.0319 35.1823 9.03326 33.9939 8.46014ZM27.6759 22.9079L42.0589 23.3423C42.6031 26.3456 42.4719 29.5772 41.5225 32.7058C40.9164 32.2968 40.2782 31.9016 39.5868 31.5681C34.0771 28.9109 27.8162 29.8861 23.0321 33.5271C22.7885 30.3793 21.7966 27.3915 20.1535 24.8562C18.5105 22.3209 16.2726 20.3249 13.659 19.0637C12.9676 18.7303 12.2662 18.4795 11.5759 18.2632C13.2168 15.4681 15.4654 13.2577 17.9893 11.7341L27.6759 22.9079Z" fill="#903150"/>
</svg>
