<svg width="73" height="78" viewBox="0 0 73 78" fill="none" xmlns="http://www.w3.org/2000/svg">
<g filter="url(#filter0_d_226_27)">
<rect x="4" width="65" height="70" rx="5" fill="#333333" fill-opacity="0.4" shape-rendering="crispEdges"/>
<path d="M30.7356 31.376L10.3836 29.216H31.0716C30.9116 29.856 30.7996 30.576 30.7356 31.376ZM32.3676 24.608L31.6476 26.72L11.7276 24.608H32.3676ZM30.7356 33.824C30.7996 34.688 30.9276 35.408 31.1196 35.984L10.8156 33.824H30.7356ZM37.4556 40.592L12.0636 38.432H32.7516C33.8076 39.456 35.3756 40.176 37.4556 40.592ZM35.9676 20C35.2316 20.48 34.5276 21.136 33.8556 21.968L15.3276 20H35.9676ZM11.2476 43.04H29.1996L28.4796 45.152L11.2476 43.04ZM10.4316 47.696H27.6636L26.9436 49.808L10.4316 47.696ZM31.2636 41.552C33.9516 42.288 36.3996 42.656 38.6076 42.656C40.8476 42.656 42.6716 42.56 44.0796 42.368L44.4636 39.968L40.4796 39.584C37.4396 39.296 35.2796 38.608 33.9996 37.52C32.7516 36.432 32.1276 34.896 32.1276 32.912C32.1276 32.048 32.2236 31.088 32.4156 30.032C33.1516 25.936 34.4956 23.12 36.4476 21.584C38.3996 20.048 41.3916 19.28 45.4236 19.28C49.4876 19.28 53.0716 19.68 56.1756 20.48L53.6796 28.16C50.8956 27.68 48.6556 27.44 46.9596 27.44C45.2956 27.44 43.8556 27.52 42.6396 27.68L42.2556 30.032L45.4716 30.368C48.7356 30.72 51.0556 31.504 52.4316 32.72C53.8076 33.904 54.4956 35.504 54.4956 37.52C54.4956 39.568 54.0636 41.68 53.1996 43.856C52.7196 44.976 52.2076 45.92 51.6636 46.688C51.1516 47.424 50.4796 48.064 49.6476 48.608C48.8476 49.12 48.1116 49.52 47.4396 49.808C46.7676 50.064 45.9036 50.256 44.8476 50.384C43.3756 50.608 41.5516 50.72 39.3756 50.72C35.4076 50.72 31.8076 50.304 28.5756 49.472L31.2636 41.552Z" fill="white"/>
</g>
<defs>
<filter id="filter0_d_226_27" x="0" y="0" width="73" height="78" filterUnits="userSpaceOnUse" color-interpolation-filters="sRGB">
<feFlood flood-opacity="0" result="BackgroundImageFix"/>
<feColorMatrix in="SourceAlpha" type="matrix" values="0 0 0 0 0 0 0 0 0 0 0 0 0 0 0 0 0 0 127 0" result="hardAlpha"/>
<feOffset dy="4"/>
<feGaussianBlur stdDeviation="2"/>
<feComposite in2="hardAlpha" operator="out"/>
<feColorMatrix type="matrix" values="0 0 0 0 0 0 0 0 0 0 0 0 0 0 0 0 0 0 0.25 0"/>
<feBlend mode="normal" in2="BackgroundImageFix" result="effect1_dropShadow_226_27"/>
<feBlend mode="normal" in="SourceGraphic" in2="effect1_dropShadow_226_27" result="shape"/>
</filter>
</defs>
</svg>
