<svg width="46" height="53" viewBox="0 0 46 53" fill="none" xmlns="http://www.w3.org/2000/svg">
<path d="M6.66666 4.45C6.66666 3.80022 6.91249 3.17705 7.35007 2.71759C7.78766 2.25812 8.38115 2 8.99999 2H41.6667C42.2855 2 42.879 2.25812 43.3166 2.71759C43.7542 3.17705 44 3.80022 44 4.45V48.55C44 49.1998 43.7542 49.823 43.3166 50.2824C42.879 50.7419 42.2855 51 41.6667 51H8.99999C8.38115 51 7.78766 50.7419 7.35007 50.2824C6.91249 49.823 6.66666 49.1998 6.66666 48.55V4.45Z" stroke="#903150" stroke-width="4" stroke-linejoin="round"/>
<path d="M34.6667 4.45001V48.55" stroke="#903150" stroke-width="4" stroke-linecap="round" stroke-linejoin="round"/>
<path d="M2 14.25H11.3333" stroke="#903150" stroke-width="4" stroke-linecap="round" stroke-linejoin="round"/>
<path d="M2 26.5H11.3333" stroke="#903150" stroke-width="4" stroke-linecap="round" stroke-linejoin="round"/>
<path d="M2 38.75H11.3333" stroke="#903150" stroke-width="4" stroke-linecap="round" stroke-linejoin="round"/>
<path d="M26.5 2H40.5" stroke="#903150" stroke-width="4" stroke-linecap="round" stroke-linejoin="round"/>
<path d="M26.5 51H40.5" stroke="#903150" stroke-width="4" stroke-linecap="round" stroke-linejoin="round"/>
</svg>
