<svg width="53" height="52" viewBox="0 0 53 52" fill="none" xmlns="http://www.w3.org/2000/svg">
<path d="M3.16202 24.2924C4.6429 22.0851 6.95338 19.2302 9.57556 17.0767C12.4012 14.7547 15.2395 13.518 17.7025 14.1564L31.5618 37.1392C28.6877 37.2995 25.8965 38.9146 23.5741 40.8225C21.0687 42.8852 18.8549 45.4842 17.273 47.6926L3.16202 24.2924ZM19.9703 12.6482C20.4737 10.037 22.7516 7.87115 25.9584 6.18119C28.9333 4.61245 32.3785 3.63942 34.9117 3.17716L49.0228 26.5773C46.4432 27.1365 43.2604 28.1233 40.4165 29.6248C37.7777 31.013 35.1949 32.9686 33.8296 35.6309L19.9703 12.6482ZM17.5508 11.2705C14.1125 10.7587 10.6949 12.6153 7.93157 14.8826C4.71564 17.5269 1.98843 21.0553 0.445194 23.5123C0.303591 23.7377 0.226651 24.0004 0.223558 24.269C0.220465 24.5376 0.29135 24.8008 0.427751 25.0271L16.0703 50.9671C16.1893 51.1643 16.3541 51.3267 16.5494 51.4395C16.7447 51.5522 16.9644 51.6116 17.1883 51.6123C17.4122 51.6129 17.6332 51.5548 17.8311 51.4433C18.0289 51.3317 18.1973 51.1703 18.3207 50.9737C19.7521 48.7002 22.2907 45.4227 25.2159 43.0181C28.2093 40.5581 31.2133 39.3169 33.7722 40.2252C33.9615 40.2922 34.1632 40.3138 34.3623 40.2884C34.5615 40.263 34.753 40.1911 34.9228 40.0782C35.0926 39.9653 35.2363 39.8142 35.3433 39.636C35.4503 39.4578 35.5179 39.2571 35.5412 39.0488C35.8533 36.2311 38.2059 33.9099 41.601 32.1211C44.9237 30.3706 48.8326 29.3602 51.3994 28.9747C51.6213 28.9415 51.8323 28.8507 52.0129 28.7105C52.1935 28.5704 52.338 28.3854 52.4332 28.1726C52.5283 27.9597 52.5711 27.7257 52.5576 27.4921C52.544 27.2585 52.4746 27.0327 52.3557 26.8354L36.7131 0.895446C36.5766 0.669193 36.3804 0.489386 36.1478 0.377488C35.9153 0.26559 35.6562 0.226328 35.4016 0.264388C32.6269 0.679133 28.4236 1.75982 24.7725 3.68248C21.638 5.33426 18.5802 7.7875 17.5508 11.2705Z" fill="#903150"/>
</svg>
