<svg width="67" height="69" viewBox="0 0 67 69" fill="none" xmlns="http://www.w3.org/2000/svg">
<g clip-path="url(#clip0_24_80)">
<path d="M48.3935 12.526L27.3742 11.8411C26.8348 11.8232 26.3081 11.9865 25.8732 12.3061L8.96604 24.724L8.95697 24.7304L8.92347 24.7552C8.89255 24.7778 8.86397 24.8024 8.83449 24.8261C8.75619 24.8888 8.68174 24.9565 8.61155 25.0286C8.59222 25.0488 8.57413 25.0701 8.55545 25.091C8.52334 25.1266 8.49196 25.1624 8.4622 25.1999C8.44496 25.2212 8.4287 25.2429 8.41231 25.2649C8.38219 25.3052 8.3534 25.3464 8.32594 25.3883C8.31272 25.4086 8.29917 25.4286 8.28628 25.4492C8.2542 25.5014 8.22412 25.5548 8.19605 25.6092C8.18995 25.621 8.1832 25.6321 8.17729 25.6438C8.14415 25.7103 8.11388 25.7782 8.08648 25.8474C8.07886 25.8668 8.07273 25.8869 8.06537 25.9065C8.04718 25.9563 8.02997 26.0064 8.01492 26.0571C8.00642 26.085 7.9989 26.1131 7.99165 26.1415C7.98002 26.1856 7.96961 26.2301 7.96043 26.2751C7.95407 26.3056 7.94765 26.336 7.94246 26.3668C7.93428 26.4145 7.92846 26.4629 7.9229 26.5114C7.91993 26.5382 7.91558 26.5647 7.91353 26.5917C7.9076 26.6628 7.90508 26.7344 7.90526 26.8063C7.90522 26.8356 7.90708 26.8654 7.90816 26.8947C7.90959 26.943 7.91233 26.9913 7.91638 27.0395C7.92395 27.1215 7.9353 27.2032 7.95038 27.2843C7.9551 27.3107 7.95936 27.337 7.96514 27.3634C7.98168 27.4406 8.0008 27.5176 8.02451 27.5942L13.1112 44.0117C13.3136 44.6648 13.7577 45.2138 14.3458 45.5377C14.9339 45.8616 15.6179 45.9341 16.2473 45.7391C16.8767 45.5441 17.3999 45.0976 17.7019 44.4979C18.0038 43.8982 18.0598 43.1943 17.8574 42.5412L13.8293 29.5404L19.0217 29.7095C18.465 33.0358 19.0565 36.4824 20.694 39.4544C22.3316 42.4264 24.9125 44.7372 27.9911 45.988C25.1324 48.6527 23.0751 52.1084 22.0542 55.9605C21.9679 56.2842 21.9446 56.6235 21.9857 56.9592C22.0268 57.2948 22.1315 57.6202 22.2938 57.9168C22.4561 58.2134 22.6728 58.4753 22.9315 58.6876C23.1902 58.9 23.4859 59.0586 23.8017 59.1543C24.1174 59.2501 24.4471 59.2812 24.7719 59.2458C25.0967 59.2105 25.4102 59.1093 25.6945 58.9482C25.9788 58.7871 26.2284 58.5691 26.4289 58.3068C26.6295 58.0444 26.7772 57.7428 26.8635 57.4191C27.5543 54.819 28.8677 52.4515 30.6843 50.5315C32.501 48.6114 34.7636 47.1996 37.2667 46.4241C39.7698 45.6485 42.4342 45.5338 45.0182 46.0904C47.6022 46.6469 50.0241 47.8571 52.064 49.6112C52.5773 50.0517 53.2351 50.2676 53.8927 50.2114C54.5502 50.1551 55.1537 49.8313 55.5704 49.3112C55.987 48.7911 56.1827 48.1173 56.1143 47.438C56.046 46.7587 55.7192 46.1295 55.2059 45.689C52.1859 43.0889 48.5352 41.4017 44.6707 40.82C46.5029 38.0478 47.3252 34.6825 46.9955 31.3053C46.6659 27.928 45.2051 24.7508 42.8652 22.322L49.8412 17.1984C50.263 16.8886 50.5768 16.4477 50.7381 15.9381C50.8994 15.4286 50.9 14.8763 50.7399 14.3595C50.5798 13.8427 50.267 13.3875 49.8459 13.0584C49.4248 12.7293 48.9167 12.5431 48.3935 12.526ZM28.1519 17.0058L40.8626 17.4198L37.2063 20.1051L37.2007 20.1093L30.6127 24.948L22.4429 24.6817L22.4365 24.6815L17.9021 24.5338L28.1519 17.0058ZM41.6442 29.7731C42.079 31.1756 42.193 32.6563 41.9772 34.098C41.7614 35.5396 41.2217 36.9026 40.4009 38.0788C39.5801 39.2551 38.5008 40.2123 37.2486 40.8745C35.9963 41.5367 34.6055 41.8858 33.1863 41.894C31.7672 41.9023 30.3588 41.5695 29.0728 40.922C27.7867 40.2745 26.6584 39.3302 25.7772 38.1638C24.8961 36.9975 24.2863 35.6412 23.9962 34.2025C23.7062 32.7637 23.7438 31.2821 24.1062 29.8751L31.3903 30.1126C31.9297 30.1303 32.4564 29.9671 32.8912 29.6475L38.7651 25.3333C40.1117 26.5073 41.111 28.0483 41.6442 29.7731Z" fill="#903150"/>
</g>
<defs>
<clipPath id="clip0_24_80">
<rect width="53" height="55" fill="white" transform="translate(0 15.6856) rotate(-17.2148)"/>
</clipPath>
</defs>
</svg>
