<svg width="40" height="37" viewBox="0 0 40 37" fill="none" xmlns="http://www.w3.org/2000/svg">
<path d="M26.2842 1.43271C16.115 -2.12085 5.21805 2.60547 1.93785 11.9924C-1.34235 21.3793 4.23923 31.8639 14.4084 35.4175C24.5776 38.971 35.4745 34.2447 38.7547 24.8578C42.0349 15.4709 36.4533 4.98626 26.2842 1.43271ZM15.5577 32.1286C7.37037 29.2676 2.85985 20.7949 5.50077 13.2374C8.14169 5.67993 16.9476 1.86056 25.1349 4.72156C33.3222 7.58255 37.8327 16.0553 35.1918 23.6128C32.5509 31.1703 23.745 34.9896 15.5577 32.1286ZM14.7912 15.2538C16.105 15.7129 17.5088 15.104 17.9326 13.8912C18.3564 12.6784 17.6374 11.3277 16.3235 10.8686C15.0097 10.4095 13.6059 11.0184 13.1821 12.2312C12.7583 13.4439 13.4773 14.7946 14.7912 15.2538ZM26.6676 19.4039C27.9814 19.863 29.3852 19.2541 29.809 18.0413C30.2328 16.8286 29.5138 15.4779 28.1999 15.0187C26.8861 14.5596 25.4823 15.1685 25.0585 16.3813C24.6347 17.5941 25.3537 18.9448 26.6676 19.4039ZM25.2262 24.482C23.0837 25.6555 20.4601 25.8458 18.0477 25.0028C15.6354 24.1598 13.699 22.3837 12.756 20.1244C12.3693 19.205 11.2721 18.7217 10.3213 19.0353C9.36069 19.3531 8.90265 20.354 9.28194 21.2708C10.6468 24.5155 13.427 27.0709 16.9009 28.2848C20.3747 29.4987 24.1414 29.2311 27.2302 27.5426C28.1053 27.0642 28.3629 25.9933 27.8093 25.1463C27.2608 24.3088 26.1014 24.0036 25.2262 24.482V24.482Z" fill="#903150"/>
</svg>
