<svg width="15" height="15" viewBox="0 0 15 15" fill="none" xmlns="http://www.w3.org/2000/svg">
<path d="M7.5 5.64C7.13213 5.64 6.77251 5.74909 6.46664 5.95347C6.16076 6.15785 5.92236 6.44834 5.78158 6.78821C5.6408 7.12808 5.60397 7.50206 5.67574 7.86287C5.74751 8.22367 5.92466 8.55509 6.18478 8.81522C6.44491 9.07534 6.77633 9.25249 7.13713 9.32426C7.49794 9.39603 7.87192 9.3592 8.21179 9.21842C8.55166 9.07764 8.84215 8.83924 9.04653 8.53336C9.25091 8.22749 9.36 7.86787 9.36 7.5C9.36 7.25574 9.31189 7.01387 9.21842 6.78821C9.12494 6.56254 8.98794 6.3575 8.81522 6.18478C8.6425 6.01206 8.43746 5.87506 8.21179 5.78158C7.98613 5.68811 7.74426 5.64 7.5 5.64V5.64ZM14.9475 3.8025C14.9436 3.22332 14.8369 2.64943 14.6325 2.1075C14.482 1.71094 14.249 1.35082 13.9491 1.05089C13.6492 0.750958 13.2891 0.518038 12.8925 0.3675C12.3506 0.163098 11.7767 0.0564457 11.1975 0.0524999C10.23 -5.02914e-08 9.945 0 7.5 0C5.055 0 4.77 -5.02914e-08 3.8025 0.0524999C3.22332 0.0564457 2.64943 0.163098 2.1075 0.3675C1.71094 0.518038 1.35082 0.750958 1.05089 1.05089C0.750958 1.35082 0.518038 1.71094 0.3675 2.1075C0.163098 2.64943 0.0564457 3.22332 0.0524999 3.8025C-5.02914e-08 4.77 0 5.055 0 7.5C0 9.945 -5.02914e-08 10.23 0.0524999 11.1975C0.0605729 11.7787 0.167081 12.3544 0.3675 12.9C0.517371 13.2947 0.750097 13.6528 1.05 13.95C1.34865 14.2517 1.70954 14.4847 2.1075 14.6325C2.64943 14.8369 3.22332 14.9436 3.8025 14.9475C4.77 15 5.055 15 7.5 15C9.945 15 10.23 15 11.1975 14.9475C11.7767 14.9436 12.3506 14.8369 12.8925 14.6325C13.2905 14.4847 13.6514 14.2517 13.95 13.95C14.2499 13.6528 14.4826 13.2947 14.6325 12.9C14.8367 12.3554 14.9433 11.7791 14.9475 11.1975C15 10.23 15 9.945 15 7.5C15 5.055 15 4.77 14.9475 3.8025V3.8025ZM13.0425 9.8025C13.0184 10.2653 12.9197 10.7212 12.75 11.1525C12.6044 11.5123 12.3879 11.8391 12.1135 12.1135C11.8391 12.3879 11.5123 12.6044 11.1525 12.75C10.7171 12.9102 10.2587 12.9988 9.795 13.0125H5.205C4.7413 12.9988 4.28287 12.9102 3.8475 12.75C3.47558 12.6118 3.13971 12.3913 2.865 12.105C2.59325 11.8359 2.38338 11.5109 2.25 11.1525C2.08917 10.7176 2.00296 10.2586 1.995 9.795V7.5V5.205C2.00296 4.74137 2.08917 4.28241 2.25 3.8475C2.38821 3.47558 2.60871 3.13971 2.895 2.865C3.16525 2.59472 3.48995 2.38507 3.8475 2.25C4.28287 2.0898 4.7413 2.00116 5.205 1.9875H9.795C10.2587 2.00116 10.7171 2.0898 11.1525 2.25C11.5244 2.38821 11.8603 2.60871 12.135 2.895C12.4068 3.16406 12.6166 3.4891 12.75 3.8475C12.9102 4.28287 12.9988 4.7413 13.0125 5.205V7.5C13.0125 9.045 13.065 9.2025 13.0425 9.795V9.8025ZM11.8425 4.2225C11.7532 3.98024 11.6124 3.76023 11.4298 3.57766C11.2473 3.39509 11.0273 3.2543 10.785 3.165C10.4524 3.0497 10.102 2.99384 9.75 3H5.25C4.8962 3.00346 4.5458 3.06948 4.215 3.195C3.97645 3.28024 3.75877 3.41528 3.57644 3.59115C3.39411 3.76702 3.2513 3.97968 3.1575 4.215C3.04858 4.54902 2.99537 4.8987 3 5.25V9.75C3.00744 10.1034 3.07333 10.4531 3.195 10.785C3.2843 11.0273 3.42509 11.2473 3.60766 11.4298C3.79023 11.6124 4.01024 11.7532 4.2525 11.8425C4.5725 11.9602 4.90924 12.026 5.25 12.0375H9.75C10.1038 12.034 10.4542 11.968 10.785 11.8425C11.0273 11.7532 11.2473 11.6124 11.4298 11.4298C11.6124 11.2473 11.7532 11.0273 11.8425 10.785C11.968 10.4542 12.034 10.1038 12.0375 9.75V7.5V5.25C12.0377 4.89585 11.9716 4.54479 11.8425 4.215V4.2225ZM7.5 10.365C7.12412 10.365 6.75192 10.2908 6.40475 10.1468C6.05757 10.0027 5.74223 9.79155 5.47679 9.52541C5.21134 9.25927 5.00102 8.94338 4.85786 8.59582C4.7147 8.24827 4.64151 7.87588 4.6425 7.5C4.6425 6.93304 4.81072 6.37882 5.12587 5.90751C5.44101 5.43621 5.8889 5.069 6.41285 4.85238C6.9368 4.63575 7.51324 4.57946 8.0692 4.69061C8.62516 4.80177 9.13564 5.07538 9.53601 5.47681C9.93639 5.87823 10.2087 6.38943 10.3184 6.94568C10.4281 7.50193 10.3703 8.07822 10.1523 8.60159C9.93426 9.12497 9.56588 9.5719 9.09375 9.88581C8.62161 10.1997 8.06696 10.3665 7.5 10.365V10.365ZM10.5 5.1975C10.3342 5.17995 10.1808 5.10167 10.0693 4.97773C9.95775 4.85379 9.89605 4.69297 9.89605 4.52625C9.89605 4.35953 9.95775 4.19871 10.0693 4.07477C10.1808 3.95083 10.3342 3.87255 10.5 3.855C10.6658 3.87255 10.8192 3.95083 10.9307 4.07477C11.0422 4.19871 11.1039 4.35953 11.1039 4.52625C11.1039 4.69297 11.0422 4.85379 10.9307 4.97773C10.8192 5.10167 10.6658 5.17995 10.5 5.1975Z" fill="white"/>
</svg>
