<svg width="15" height="15" viewBox="0 0 15 15" fill="none" xmlns="http://www.w3.org/2000/svg">
<path d="M13.2331 2.36508C13.8759 1.89198 14.3569 1.14702 14.5862 0.269309C13.9822 0.710552 13.3213 1.02136 12.6322 1.18831C12.1674 0.583013 11.5538 0.182723 10.886 0.0491402C10.2181 -0.0844427 9.53315 0.0560975 8.93661 0.449097C8.34007 0.842097 7.86508 1.46574 7.58486 2.22389C7.30465 2.98204 7.23476 3.8326 7.38598 4.64448C6.16255 4.56886 4.9657 4.17737 3.87314 3.49541C2.78057 2.81345 1.81669 1.85627 1.04408 0.685992C0.651159 1.52033 0.530927 2.50751 0.707798 3.44702C0.884668 4.38654 1.34538 5.20796 1.99637 5.74445C1.50782 5.72511 1.03011 5.56227 0.603069 5.2695V5.31717C0.603206 6.192 0.849124 7.03985 1.29912 7.71693C1.74911 8.394 2.37548 8.85863 3.072 9.032C2.61884 9.18378 2.14352 9.20613 1.68228 9.09733C1.87929 9.84976 2.2622 10.5077 2.77756 10.9793C3.29293 11.4509 3.91505 11.7127 4.55708 11.7281C3.46699 12.7814 2.12076 13.3526 0.735013 13.3498C0.489052 13.3498 0.243809 13.3321 0 13.2977C1.40722 14.4109 3.04502 15.0018 4.71771 14.9997C5.86978 15.0095 7.01194 14.7373 8.07784 14.199C9.14374 13.6607 10.1121 12.867 10.9268 11.8641C11.7414 10.8611 12.386 9.66884 12.8232 8.35657C13.2603 7.0443 13.4813 5.63816 13.4733 4.21985C13.4733 4.05565 13.4705 3.89233 13.464 3.72989C14.0667 3.1937 14.5868 2.52943 15 1.76831C14.4385 2.07468 13.843 2.27584 13.2331 2.36508Z" fill="white"/>
</svg>
