<svg width="20" height="15" viewBox="0 0 20 15" fill="none" xmlns="http://www.w3.org/2000/svg">
<path fill-rule="evenodd" clip-rule="evenodd" d="M7.935 4.73269V10.7259L13.338 7.71861L7.935 4.73269V4.73269ZM19.8 11.7635C19.8 11.7635 19.605 13.234 19.005 13.8813C18.245 14.7302 17.392 14.7345 17.001 14.7846C14.203 15 10.004 15 10.004 15H9.996C9.996 15 5.798 15 2.999 14.7846C2.608 14.7345 1.756 14.7313 0.995 13.8813C0.395 13.234 0.2 11.7635 0.2 11.7635C0.2 11.7635 0 10.038 0 8.31153V6.6938C0 4.96836 0.2 3.24186 0.2 3.24186C0.2 3.24186 0.395 1.77236 0.995 1.12505C1.755 0.275132 2.755 0.302859 3.2 0.213281C4.8 0.0501218 10 1.29282e-07 10 1.29282e-07C10 1.29282e-07 14.203 0.00639872 17.001 0.221812C17.392 0.271933 18.245 0.275132 19.005 1.12505C19.605 1.77236 19.8 3.24186 19.8 3.24186C19.8 3.24186 20 4.96836 20 6.6938V8.31153C20 10.038 19.8 11.7635 19.8 11.7635V11.7635Z" fill="white"/>
</svg>
