<svg width="15" height="15" viewBox="0 0 15 15" fill="none" xmlns="http://www.w3.org/2000/svg">
<path fill-rule="evenodd" clip-rule="evenodd" d="M14.0625 7.53955C14.0625 3.91553 11.124 0.977051 7.5 0.977051C3.87598 0.977051 0.9375 3.91553 0.9375 7.53955C0.9375 10.8149 3.33691 13.5299 6.47461 14.0227V9.43711H4.80791V7.53955H6.47461V6.09375C6.47461 4.44932 7.45459 3.54023 8.95342 3.54023C9.67148 3.54023 10.4227 3.66855 10.4227 3.66855V5.28369H9.59473C8.77998 5.28369 8.5251 5.78936 8.5251 6.30908V7.53955H10.345L10.0544 9.43711H8.52539V14.0232C11.6631 13.5308 14.0625 10.8158 14.0625 7.53955V7.53955Z" fill="white"/>
</svg>
